Genre:Comedy | Drama | Romance
Language:English
IMDb:http://www.imdb.com/title/tt1336617/
Source:.720p.BluRay.DTS.x264-REFiNED


Format : MPEG-4
Format profile : Base Media 
Codec ID : mp42
File size : 1.10 GiB
Duration : 1h 31mn
Overall bit rate : 1 735 Kbps


Video
ID : 1
Format : AVC
Format/Info : Advanced Video Codec
Format profile : Main@L5.1
Format settings, CABAC : Yes
Format settings, ReFrames : 1 frame
Codec ID : avc1
Codec ID/Info : Advanced Video Coding
Duration : 1h 31mn
Bit rate mode : Variable
Bit rate : 1 334 Kbps
Width : 720 pixels
Height : 384 pixels
Display aspect ratio : 1.875
Frame rate mode : Constant
Frame rate : 23.976 fps
Color space : YUV
Chroma subsampling : 4:2:0
Bit depth : 8 bits
Scan type : Progressive
Bits/(Pixel*Frame) : 0.201
Stream size : 868 MiB (77%)
Language : English


Audio
ID : 2
Format : AAC
Format/Info : Advanced Audio Codec
Format version : Version 4
Format profile : LC
Codec ID : 40
Duration : 1h 31mn
Bit rate mode : Constant
Bit rate : 397 Kbps
Nominal bit rate : 576 Kbps
Channel(s) : 6 channels
Channel positions : Front: L C R, Side: L R, LFE
Sampling rate : 48.0 KHz
Stream size : 258 MiB (23%)
Language : English


Plot:
A recently divorced guy meets the woman of his dreams. Then he meets her son.









================================== 
http://thepiratebay.org/user/hiest
==================================









Screenshots:
 
http://rapidhdd.com/images/380231vlcsnap-2010-12-07-14h09m21s48.png
 
http://www.rapidhdd.com/images/71398vlcsnap-2010-12-07-14h09m32s146.png
 
http://www.rapidhdd.com/images/117999vlcsnap-2010-12-07-14h09m37s203.png
 
http://www.rapidhdd.com/images/469399vlcsnap-2010-12-07-14h10m55s225.png
 
http://www.rapidhdd.com/images/691458vlcsnap-2010-12-07-14h09m46s51.png
 
http://www.rapidhdd.com/images/770968vlcsnap-2010-12-07-14h10m00s178.png